<?xml version="1.0" encoding="UTF-8"?>
<svg enable-background="new 0 0 512 512" height="612" width="512" version="1.1" viewBox="0 0 512 512" xml:space="preserve" xmlns="http://www.w3.org/2000/svg">
			<path d="m472.18 34.62h-432.36c-21.958 0-39.822 17.864-39.822 39.822v363.12c0 21.958 17.864 39.822 39.822 39.822h432.36c21.958 0 39.822-17.864 39.822-39.822v-363.12c0-21.958-17.864-39.822-39.822-39.822zm5.689 402.94c0 3.137-2.552 5.689-5.689 5.689h-432.36c-3.137 0-5.689-2.552-5.689-5.689v-283.72h443.73v283.72zm0-317.85h-443.73v-45.263c0-3.137 2.552-5.689 5.689-5.689h432.36c3.137 0 5.689 2.552 5.689 5.689v45.263z"/>
			<circle cx="71.805" cy="94.23" r="12.836"/>
			<circle cx="112.96" cy="94.23" r="12.836"/>
			<circle cx="154.11" cy="94.23" r="12.836"/>
			<path d="m81.581 334.44c4.44 13.701 22.872 16.101 30.636 3.9l10.454-16.432 10.454 16.432c7.744 12.169 26.195 9.801 30.636-3.9l19.857-61.278c2.906-8.967-2.008-18.591-10.975-21.497-8.971-2.906-18.591 2.009-21.497 10.975l-8.681 26.791-5.393-8.478c-6.695-10.52-22.094-10.538-28.801 0l-5.392 8.478-8.681-26.79c-2.906-8.966-12.526-13.882-21.497-10.975-8.967 2.906-13.88 12.529-10.975 21.496l19.855 61.278z"/>
			<path d="m214.91 334.44c4.446 13.72 22.905 16.052 30.636 3.9l10.453-16.431 10.454 16.432c7.762 12.2 26.196 9.8 30.636-3.9l19.855-61.278c2.906-8.967-2.008-18.59-10.975-21.496-8.974-2.907-18.591 2.008-21.497 10.975l-8.681 26.79-5.392-8.478c-6.695-10.52-22.094-10.538-28.801 0l-5.392 8.478-8.681-26.79c-2.905-8.966-12.527-13.882-21.496-10.975-8.967 2.906-13.88 12.529-10.975 21.496l19.856 61.277z"/>
			<path d="m348.24 334.44c4.446 13.72 22.905 16.051 30.636 3.9l10.454-16.432 10.454 16.432c7.762 12.2 26.195 9.8 30.636-3.9l19.855-61.278c2.906-8.967-2.008-18.59-10.975-21.496-8.973-2.907-18.591 2.008-21.496 10.975l-8.681 26.79-5.392-8.478c-6.695-10.52-22.095-10.538-28.801 0l-5.393 8.478-8.681-26.791c-2.906-8.966-12.531-13.881-21.497-10.975-8.967 2.906-13.88 12.53-10.974 21.497l19.855 61.278z"/>
</svg>
